<?xml version="1.0" encoding="UTF-8"?>
<svg version="1.1" xmlns="http://www.w3.org/2000/svg" width="420" height="312">
<path d="M0 0 C7.11162645 6.85755419 12.14096659 14.75424835 16.64868164 23.47167969 C20.15074959 29.89474497 24.60231018 32.94626434 31.39013672 35.50634766 C47.85247271 39.52992903 63.53885572 38.22809215 80.26123047 36.89697266 C82.12903368 36.75198559 83.99687208 36.60745104 85.86474609 36.46337891 C90.39316292 36.11311944 94.92106126 35.75676208 99.44873047 35.39697266 C99.44873047 39.02697266 99.44873047 42.65697266 99.44873047 46.39697266 C98.07845703 46.70924805 96.70818359 47.02152344 95.29638672 47.34326172 C90.13714919 48.51948286 84.97841763 49.69791055 79.81982422 50.87695312 C77.60120835 51.38372561 75.38246172 51.88992599 73.16357422 52.39550781 C57.68582259 55.91775153 57.68582259 55.91775153 42.24560547 59.60009766 C41.05290039 59.89045898 39.86019531 60.18082031 38.63134766 60.47998047 C32.07726662 62.36837632 25.83058367 65.02214232 21.44873047 70.39697266 C20.54510377 72.8769576 19.80598934 75.23325317 19.13623047 77.77197266 C15.68239671 89.69930293 10.39457397 99.80647826 2.44873047 109.39697266 C0.54732212 112.14345139 -1.24631089 114.81755124 -2.80126953 117.77197266 C-13.78465151 134.24704563 -34.73424722 143.44666305 -53.55126953 147.39697266 C-59.51838753 148.4189858 -65.51324324 149.0004502 -71.55126953 149.39697266 C-72.47294922 149.45755859 -73.39462891 149.51814453 -74.34423828 149.58056641 C-76.77332926 149.6497365 -79.12669749 149.56544745 -81.55126953 149.39697266 C-82.71400391 149.31705078 -83.87673828 149.23712891 -85.07470703 149.15478516 C-106.74527115 147.06862083 -127.525809 138.21915628 -143.55126953 123.39697266 C-144.20353516 122.80142578 -144.85580078 122.20587891 -145.52783203 121.59228516 C-149.49508915 117.79979707 -152.80709484 113.6236616 -156.07080078 109.21728516 C-157.43664549 107.28273203 -157.43664549 107.28273203 -159.55126953 106.39697266 C-174.58218557 104.86974541 -189.44018539 108.59806843 -204.11376953 111.39697266 C-207.92778377 112.11536988 -211.74248762 112.82958036 -215.55857849 113.53686523 C-217.91721821 113.97491465 -220.27461552 114.41972496 -222.63050842 114.87231445 C-235.54302607 117.29065545 -235.54302607 117.29065545 -240.4614563 115.82949829 C-242.96117152 115.31213583 -244.49973887 115.64410231 -246.96508789 116.27734375 C-247.82956039 116.49441986 -248.6940329 116.71149597 -249.58470154 116.93515015 C-250.51081741 117.17778595 -251.43693329 117.42042175 -252.39111328 117.67041016 C-253.82977501 118.03520981 -253.82977501 118.03520981 -255.29750061 118.40737915 C-258.36358984 119.18674781 -261.42617591 119.97899039 -264.48876953 120.77197266 C-267.54845821 121.55499131 -270.60880263 122.3353968 -273.66932678 123.11514282 C-275.57316012 123.60120881 -277.47637638 124.08969984 -279.37889099 124.5809021 C-280.24651566 124.80428253 -281.11414032 125.02766296 -282.00805664 125.2578125 C-282.76654404 125.45402191 -283.52503143 125.65023132 -284.3065033 125.85238647 C-289.55439416 127.12553858 -294.15379997 127.75090509 -299.55126953 127.39697266 C-301.55126953 124.39697266 -301.55126953 124.39697266 -301.55126953 120.39697266 C-297.62884747 118.32127422 -293.93040916 116.79609519 -289.64111328 115.67041016 C-288.50222656 115.36586914 -287.36333984 115.06132812 -286.18994141 114.74755859 C-284.96855469 114.42561523 -283.74716797 114.10367188 -282.48876953 113.77197266 C-268.75448971 110.07748785 -255.16554907 105.99991771 -241.61230469 101.68457031 C-237.91861926 100.50996489 -234.21829865 99.35729341 -230.51730347 98.20596313 C-227.22857737 97.17951158 -223.94388198 96.14055542 -220.65991211 95.09899902 C-219.07862824 94.59967559 -217.49599186 94.10460982 -215.91186523 93.61437988 C-207.61352649 91.04126195 -199.58678424 88.19271314 -191.75830078 84.40087891 C-191.10520432 84.09270737 -190.45210785 83.78453583 -189.77922058 83.46702576 C-184.47620452 80.78102497 -180.84747345 77.41359269 -178.47705078 71.89697266 C-177.22608282 66.79748544 -176.31422399 61.79931143 -175.67626953 56.58447266 C-173.00760379 36.59135394 -161.33363878 17.86846036 -147.55126953 3.39697266 C-146.89126953 3.39697266 -146.23126953 3.39697266 -145.55126953 3.39697266 C-145.22126953 2.40697266 -144.89126953 1.41697266 -144.55126953 0.39697266 C-105.6160039 -39.06463239 -39.26604904 -36.41619379 0 0 Z M-114.55126953 36.39697266 C-117.23926903 39.90536698 -119.46709451 43.50378054 -121.55126953 47.39697266 C-121.94830078 48.09951172 -122.34533203 48.80205078 -122.75439453 49.52587891 C-125.57733102 55.07695178 -126.54179244 60.87770012 -127.42529297 66.98950195 C-127.70989155 68.80852475 -128.12276896 70.60637847 -128.55126953 72.39697266 C-129.54126953 73.05697266 -130.53126953 73.71697266 -131.55126953 74.39697266 C-131.22126953 75.38697266 -130.89126953 76.37697266 -130.55126953 77.39697266 C-129.6008931 77.19731903 -128.65051666 76.99766541 -127.67134094 76.79196167 C-118.57117572 74.88027362 -109.4709111 72.96905932 -100.37055683 71.05827141 C-95.69563951 70.07667109 -91.0207535 69.0949222 -86.34594727 68.11279297 C-64.42136175 63.50678054 -42.49403075 58.91574271 -20.55126953 54.39697266 C-22.84776384 41.5938465 -30.31401261 31.1607802 -40.67626953 23.70947266 C-65.44523421 6.96130109 -95.36347766 15.27983951 -114.55126953 36.39697266 Z M-12.55126953 38.39697266 C-12.09930708 40.00294591 -11.63944626 41.60669773 -11.17626953 43.20947266 C-10.92103516 44.10279297 -10.66580078 44.99611328 -10.40283203 45.91650391 C-9.59860292 48.60165162 -9.59860292 48.60165162 -7.55126953 51.39697266 C-1.58916659 51.91996414 3.68786282 50.89053093 9.44873047 49.39697266 C9.44873047 48.73697266 9.44873047 48.07697266 9.44873047 47.39697266 C8.61470703 47.16623047 7.78068359 46.93548828 6.92138672 46.69775391 C-0.12422337 44.65589898 -6.33848682 42.31407597 -12.55126953 38.39697266 Z M-31.81298828 75.90991211 C-33.02415062 76.15139984 -33.02415062 76.15139984 -34.25978088 76.39776611 C-36.92058453 76.92974371 -39.57965196 77.46991699 -42.23876953 78.01025391 C-44.1022803 78.38468933 -45.96588877 78.75863881 -47.82958984 79.13212585 C-52.73744039 80.11713944 -57.64383525 81.10922989 -62.54998779 82.10266113 C-66.52079071 82.90549445 -70.49257549 83.70340111 -74.46443176 84.50100422 C-98.53448842 89.32056357 -98.53448842 89.32056357 -122.55126953 94.39697266 C-122.55126953 95.38697266 -122.55126953 96.37697266 -122.55126953 97.39697266 C-109.57249021 109.49237956 -92.19587913 115.78433206 -74.53955078 115.54541016 C-58.26255567 114.73687968 -43.79224008 108.10508464 -31.55126953 97.39697266 C-31.55126953 96.73697266 -31.55126953 96.07697266 -31.55126953 95.39697266 C-30.89126953 95.39697266 -30.23126953 95.39697266 -29.55126953 95.39697266 C-23.87313239 89.02927047 -19.63396189 82.7277421 -17.55126953 74.39697266 C-22.47146538 74.20964804 -27.01645107 74.9250648 -31.81298828 75.90991211 Z " fill="#F5F5F5" transform="translate(320.55126953125,96.60302734375)"/>
<path d="M0 0 C6.07548958 5.00110723 11.47620643 10.44137375 16.5625 16.4375 C23.16199594 24.03062792 32.0832159 25.99303598 41.7109375 27.59765625 C43.875 28.125 43.875 28.125 46.875 30.125 C46.875 31.445 46.875 32.765 46.875 34.125 C25.24021352 40.63122776 25.24021352 40.63122776 15.875 40.125 C10.99697541 30.71600396 10.99697541 30.71600396 9.4375 26 C7.02567594 19.2550683 2.04674788 13.93592826 -3.125 9.125 C-3.72570312 8.51914063 -4.32640625 7.91328125 -4.9453125 7.2890625 C-12.9808612 -0.44997148 -23.09733251 -5.89001985 -34.125 -7.875 C-34.125 -8.205 -34.125 -8.535 -34.125 -8.875 C-32.145 -9.205 -30.165 -9.535 -28.125 -9.875 C-42.55882055 -12.62429915 -57.56541843 -11.30659882 -70.3671875 -3.8046875 C-75.77843545 -0.01834687 -80.41057037 4.52975539 -85.125 9.125 C-85.8571875 9.77210937 -86.589375 10.41921875 -87.34375 11.0859375 C-95.35052283 18.36193345 -103.30704648 30.27996696 -105.125 41.125 C-105.1610952 43.12467426 -105.16754356 45.12545254 -105.125 47.125 C-104.939375 46.06925781 -104.939375 46.06925781 -104.75 44.9921875 C-101.91498732 31.41956428 -94.91631623 20.76062393 -85.125 11.125 C-84.47789062 10.47917969 -83.83078125 9.83335938 -83.1640625 9.16796875 C-71.19861041 -2.04048535 -56.47976287 -6.51512748 -40.36962891 -6.34765625 C-33.66248438 -6.11236271 -28.13208349 -4.96984941 -22.125 -1.875 C-21.20589844 -1.43929687 -20.28679687 -1.00359375 -19.33984375 -0.5546875 C-4.84416018 6.74300189 4.4194425 18.06965853 10.0625 33.1796875 C10.84459295 36.01477443 10.93888646 38.21140882 10.875 41.125 C10.2672876 41.25551758 9.6595752 41.38603516 9.03344727 41.52050781 C6.16776664 42.13699218 3.30255978 42.75563655 0.4375 43.375 C-0.61203857 43.60171387 -1.66157715 43.82842773 -2.74291992 44.06201172 C-8.82771187 45.38408666 -14.8883291 46.77475191 -20.9375 48.25 C-26.28444792 49.53966878 -31.62639081 50.58836711 -37.0625 51.4375 C-45.45881565 52.75745743 -53.7860279 54.4020989 -62.11233521 56.10116577 C-63.59653291 56.40377852 -65.08112114 56.70448347 -66.56613159 57.00308228 C-75.19887268 58.74250696 -83.64445814 60.72045893 -92.07763672 63.27758789 C-95.99984317 64.36827677 -99.9253086 64.96393882 -103.9453125 65.56640625 C-108.86575096 66.4308076 -113.6617536 67.7381798 -118.484375 69.02734375 C-122.49275573 70.03697348 -126.54359598 70.76302184 -130.609375 71.49609375 C-139.05250026 73.03681049 -147.3324452 75.04744408 -155.625 77.25 C-156.35568695 77.44242279 -157.0863739 77.63484558 -157.83920288 77.83309937 C-169.44361325 80.90717692 -180.64968535 84.6120514 -191.80078125 89.08203125 C-197.7937597 91.46613702 -203.94231478 93.30181426 -210.125 95.125 C-206.01679512 94.45278321 -201.90916373 93.77718659 -197.80200195 93.09863281 C-196.40859529 92.86889205 -195.0150435 92.64002956 -193.62133789 92.41210938 C-186.07122948 91.17678485 -178.58111003 89.84679248 -171.125 88.125 C-168.1627494 87.58436111 -165.19626692 87.106485 -162.22265625 86.6328125 C-160.20474369 86.30200716 -158.19105584 85.94391654 -156.18359375 85.5546875 C-136.04962596 81.7477322 -136.04962596 81.7477322 -128.25 86.5 C-124.22413179 89.65681548 -121.22632372 93.49431155 -118.13671875 97.54296875 C-107.99697585 110.55727955 -94.49738728 117.87589215 -79.125 123.125 C-77.95066406 123.54007813 -76.77632812 123.95515625 -75.56640625 124.3828125 C-59.03881327 129.38481418 -38.57614322 129.49433018 -22.125 124.125 C-21.49094238 123.92100586 -20.85688477 123.71701172 -20.20361328 123.50683594 C-6.55253932 119.02497796 4.90335834 112.47031425 15.875 103.125 C12.80982321 104.61554732 9.83319502 106.2480952 6.84863281 107.89282227 C-0.5053273 111.91269903 -8.00172949 115.89961302 -16.125 118.125 C-17.115 117.795 -18.105 117.465 -19.125 117.125 C-17.91585937 116.65191406 -16.70671875 116.17882812 -15.4609375 115.69140625 C3.50318169 108.10225858 19.60497431 98.75894567 30.875 81.125 C31.54660156 80.17496094 32.21820313 79.22492188 32.91015625 78.24609375 C34.94881238 75.00775131 36.19862222 71.9894157 37.4375 68.375 C38.07945312 66.54001953 38.07945312 66.54001953 38.734375 64.66796875 C39.69530168 61.68317253 40.45984999 58.73336831 41.1875 55.6875 C43.07062406 49.30580178 47.52106645 46.11518905 53.07617188 42.81884766 C59.50957817 39.45789169 65.71907296 37.72765021 72.8125 36.3125 C75.18008 35.81566883 77.54724624 35.31686309 79.9140625 34.81640625 C81.1815332 34.55102051 82.44900391 34.28563477 83.75488281 34.01220703 C88.25406676 33.05530223 92.73240155 32.01354634 97.2109375 30.96484375 C98.39209892 30.68929909 98.39209892 30.68929909 99.59712219 30.40818787 C102.7337436 29.67611847 105.87022464 28.94365332 109.00436401 28.20101929 C111.19556482 27.68269577 113.38855061 27.17263794 115.58203125 26.6640625 C116.8450708 26.36709473 118.10811035 26.07012695 119.40942383 25.76416016 C122.66061124 25.16453996 125.57958271 25.00040597 128.875 25.125 C128.875 27.435 128.875 29.745 128.875 32.125 C128.30918213 32.25392639 127.74336426 32.38285278 127.16040039 32.51568604 C121.18850657 33.87678142 115.21715581 35.24024093 109.24609375 36.60498047 C107.02747788 37.11175295 104.80873125 37.61795333 102.58984375 38.12353516 C87.11209212 41.64577887 87.11209212 41.64577887 71.671875 45.328125 C70.47916992 45.61848633 69.28646484 45.90884766 68.05761719 46.20800781 C61.50353615 48.09640367 55.2568532 50.75016967 50.875 56.125 C49.9713733 58.60498494 49.23225887 60.96128052 48.5625 63.5 C45.10866624 75.42733027 39.8208435 85.5345056 31.875 95.125 C29.97359165 97.87147873 28.17995864 100.54557858 26.625 103.5 C15.64161802 119.97507297 -5.30797769 129.17469039 -24.125 133.125 C-30.092118 134.14701314 -36.08697371 134.72847754 -42.125 135.125 C-43.04667969 135.18558594 -43.96835938 135.24617187 -44.91796875 135.30859375 C-47.34705973 135.37776384 -49.70042796 135.29347479 -52.125 135.125 C-53.28773438 135.04507813 -54.45046875 134.96515625 -55.6484375 134.8828125 C-77.31900162 132.79664817 -98.09953947 123.94718363 -114.125 109.125 C-114.77726563 108.52945313 -115.42953125 107.93390625 -116.1015625 107.3203125 C-120.06881962 103.52782441 -123.38082531 99.35168895 -126.64453125 94.9453125 C-128.01037596 93.01075937 -128.01037596 93.01075937 -130.125 92.125 C-145.15591604 90.59777275 -160.01391586 94.32609577 -174.6875 97.125 C-178.50151424 97.84339722 -182.31621808 98.55760771 -186.13230896 99.26489258 C-188.49094868 99.70294199 -190.84834599 100.14775231 -193.20423889 100.6003418 C-206.11675654 103.01868279 -206.11675654 103.01868279 -211.03518677 101.55752563 C-213.53490199 101.04016318 -215.07346934 101.37212965 -217.53881836 102.00537109 C-218.83552711 102.33098526 -218.83552711 102.33098526 -220.15843201 102.66317749 C-221.08454788 102.90581329 -222.01066376 103.1484491 -222.96484375 103.3984375 C-224.40350548 103.76323715 -224.40350548 103.76323715 -225.87123108 104.13540649 C-228.93732031 104.91477515 -231.99990638 105.70701774 -235.0625 106.5 C-238.12218868 107.28301865 -241.1825331 108.06342414 -244.24305725 108.84317017 C-246.14689059 109.32923615 -248.05010684 109.81772718 -249.95262146 110.30892944 C-251.25405846 110.64400009 -251.25405846 110.64400009 -252.58178711 110.98583984 C-253.34027451 111.18204926 -254.0987619 111.37825867 -254.88023376 111.58041382 C-260.12812463 112.85356592 -264.72753044 113.47893243 -270.125 113.125 C-272.125 110.125 -272.125 110.125 -272.125 106.125 C-271.15949219 106.17011719 -270.19398438 106.21523437 -269.19921875 106.26171875 C-264.57551317 106.25592318 -260.38046974 105.1282772 -255.9375 103.9375 C-254.16155248 103.4761999 -252.38550791 103.01527328 -250.609375 102.5546875 C-249.70380859 102.31717773 -248.79824219 102.07966797 -247.86523438 101.83496094 C-245.19099158 101.1420976 -242.5117624 100.47575851 -239.828125 99.8203125 C-231.68407154 97.83118355 -223.6160793 95.76741495 -215.62890625 93.20703125 C-212.89383371 92.36242133 -210.16317197 91.57618046 -207.40234375 90.82421875 C-185.1601655 84.74598817 -161.6897578 77.9625891 -145.125 61.125 C-144.135 61.455 -143.145 61.785 -142.125 62.125 C-140.9375 65.1875 -140.9375 65.1875 -140.125 68.125 C-132.38163233 66.90151571 -124.94148025 65.06369244 -117.41015625 62.9296875 C-114.125 62.125 -114.125 62.125 -110.125 62.125 C-110.14820313 61.50753906 -110.17140625 60.89007813 -110.1953125 60.25390625 C-110.32333108 54.24617697 -109.69340747 48.92250618 -108.125 43.125 C-108.785 43.125 -109.445 43.125 -110.125 43.125 C-108.39357595 26.01972444 -98.66309253 13.36391518 -86.125 2.125 C-60.43002697 -18.54085824 -26.21102018 -20.28470454 0 0 Z M-85.125 22.125 C-87.8129995 25.63339432 -90.04082497 29.23180789 -92.125 33.125 C-92.52203125 33.82753906 -92.9190625 34.53007812 -93.328125 35.25390625 C-96.15106149 40.80497913 -97.11552291 46.60572746 -97.99902344 52.7175293 C-98.28362202 54.53655209 -98.69649943 56.33440581 -99.125 58.125 C-100.115 58.785 -101.105 59.445 -102.125 60.125 C-101.795 61.115 -101.465 62.105 -101.125 63.125 C-100.17462357 62.92534637 -99.22424713 62.72569275 -98.24507141 62.51998901 C-89.14490619 60.60830097 -80.04464157 58.69708667 -70.9442873 56.78629875 C-66.26936998 55.80469844 -61.59448397 54.82294954 -56.91967773 53.84082031 C-34.99509222 49.23480788 -13.06776122 44.64377006 8.875 40.125 C6.57850569 27.32187385 -0.88774308 16.88880755 -11.25 9.4375 C-36.01896468 -7.31067157 -65.93720813 1.00786685 -85.125 22.125 Z M16.875 24.125 C17.32696245 25.73097325 17.78682327 27.33472508 18.25 28.9375 C18.50523437 29.83082031 18.76046875 30.72414063 19.0234375 31.64453125 C19.82766661 34.32967896 19.82766661 34.32967896 21.875 37.125 C27.83710294 37.64799149 33.11413235 36.61855828 38.875 35.125 C38.875 34.465 38.875 33.805 38.875 33.125 C38.04097656 32.89425781 37.20695312 32.66351563 36.34765625 32.42578125 C29.30204617 30.38392632 23.08778271 28.04210331 16.875 24.125 Z " fill="#070707" transform="translate(291.125,110.875)"/>
<path d="M0 0 C6.07548958 5.00110723 11.47620643 10.44137375 16.5625 16.4375 C23.16199594 24.03062792 32.0832159 25.99303598 41.7109375 27.59765625 C43.875 28.125 43.875 28.125 46.875 30.125 C46.875 31.445 46.875 32.765 46.875 34.125 C25.24021352 40.63122776 25.24021352 40.63122776 15.875 40.125 C10.99697541 30.71600396 10.99697541 30.71600396 9.4375 26 C7.02567594 19.2550683 2.04674788 13.93592826 -3.125 9.125 C-3.72570312 8.51914063 -4.32640625 7.91328125 -4.9453125 7.2890625 C-12.9808612 -0.44997148 -23.09733251 -5.89001985 -34.125 -7.875 C-34.125 -8.205 -34.125 -8.535 -34.125 -8.875 C-32.145 -9.205 -30.165 -9.535 -28.125 -9.875 C-42.55882055 -12.62429915 -57.56541843 -11.30659882 -70.3671875 -3.8046875 C-75.77843545 -0.01834687 -80.41057037 4.52975539 -85.125 9.125 C-85.8571875 9.77210937 -86.589375 10.41921875 -87.34375 11.0859375 C-95.35052283 18.36193345 -103.30704648 30.27996696 -105.125 41.125 C-105.1610952 43.12467426 -105.16754356 45.12545254 -105.125 47.125 C-104.939375 46.06925781 -104.939375 46.06925781 -104.75 44.9921875 C-101.91498732 31.41956428 -94.91631623 20.76062393 -85.125 11.125 C-84.47789062 10.47917969 -83.83078125 9.83335938 -83.1640625 9.16796875 C-71.19861041 -2.04048535 -56.47976287 -6.51512748 -40.36962891 -6.34765625 C-33.66248438 -6.11236271 -28.13208349 -4.96984941 -22.125 -1.875 C-21.20589844 -1.43929687 -20.28679687 -1.00359375 -19.33984375 -0.5546875 C-4.84416018 6.74300189 4.4194425 18.06965853 10.0625 33.1796875 C10.84459295 36.01477443 10.93888646 38.21140882 10.875 41.125 C10.2672876 41.25551758 9.6595752 41.38603516 9.03344727 41.52050781 C6.16776664 42.13699218 3.30255978 42.75563655 0.4375 43.375 C-0.61203857 43.60171387 -1.66157715 43.82842773 -2.74291992 44.06201172 C-8.82771187 45.38408666 -14.8883291 46.77475191 -20.9375 48.25 C-26.28444792 49.53966878 -31.62639081 50.58836711 -37.0625 51.4375 C-45.45881565 52.75745743 -53.7860279 54.4020989 -62.11233521 56.10116577 C-63.59653291 56.40377852 -65.08112114 56.70448347 -66.56613159 57.00308228 C-75.19887268 58.74250696 -83.64445814 60.72045893 -92.07763672 63.27758789 C-95.99984317 64.36827677 -99.9253086 64.96393882 -103.9453125 65.56640625 C-108.86575096 66.4308076 -113.6617536 67.7381798 -118.484375 69.02734375 C-122.49275573 70.03697348 -126.54359598 70.76302184 -130.609375 71.49609375 C-139.05257732 73.03682455 -147.33220366 75.04816463 -155.625 77.25 C-156.72053192 77.53813568 -156.72053192 77.53813568 -157.8381958 77.83209229 C-168.55683156 80.66734808 -178.97210169 83.95559024 -189.26367188 88.11767578 C-195.64772559 90.69093687 -202.26033316 93.27268001 -209.125 94.125 C-210.115 93.465 -211.105 92.805 -212.125 92.125 C-210.85269531 91.7846875 -209.58039063 91.444375 -208.26953125 91.09375 C-185.77187053 84.95017464 -161.88840894 78.16451215 -145.125 61.125 C-143.64 61.62 -143.64 61.62 -142.125 62.125 C-140.9375 65.1875 -140.9375 65.1875 -140.125 68.125 C-132.38163233 66.90151571 -124.94148025 65.06369244 -117.41015625 62.9296875 C-114.125 62.125 -114.125 62.125 -110.125 62.125 C-110.14820313 61.50753906 -110.17140625 60.89007813 -110.1953125 60.25390625 C-110.32333108 54.24617697 -109.69340747 48.92250618 -108.125 43.125 C-108.785 43.125 -109.445 43.125 -110.125 43.125 C-108.39357595 26.01972444 -98.66309253 13.36391518 -86.125 2.125 C-60.43002697 -18.54085824 -26.21102018 -20.28470454 0 0 Z M-85.125 22.125 C-87.8129995 25.63339432 -90.04082497 29.23180789 -92.125 33.125 C-92.52203125 33.82753906 -92.9190625 34.53007812 -93.328125 35.25390625 C-96.15106149 40.80497913 -97.11552291 46.60572746 -97.99902344 52.7175293 C-98.28362202 54.53655209 -98.69649943 56.33440581 -99.125 58.125 C-100.115 58.785 -101.105 59.445 -102.125 60.125 C-101.795 61.115 -101.465 62.105 -101.125 63.125 C-100.17462357 62.92534637 -99.22424713 62.72569275 -98.24507141 62.51998901 C-89.14490619 60.60830097 -80.04464157 58.69708667 -70.9442873 56.78629875 C-66.26936998 55.80469844 -61.59448397 54.82294954 -56.91967773 53.84082031 C-34.99509222 49.23480788 -13.06776122 44.64377006 8.875 40.125 C6.57850569 27.32187385 -0.88774308 16.88880755 -11.25 9.4375 C-36.01896468 -7.31067157 -65.93720813 1.00786685 -85.125 22.125 Z M16.875 24.125 C17.32696245 25.73097325 17.78682327 27.33472508 18.25 28.9375 C18.50523437 29.83082031 18.76046875 30.72414063 19.0234375 31.64453125 C19.82766661 34.32967896 19.82766661 34.32967896 21.875 37.125 C27.83710294 37.64799149 33.11413235 36.61855828 38.875 35.125 C38.875 34.465 38.875 33.805 38.875 33.125 C38.04097656 32.89425781 37.20695312 32.66351563 36.34765625 32.42578125 C29.30204617 30.38392632 23.08778271 28.04210331 16.875 24.125 Z " fill="#0A0A0A" transform="translate(291.125,110.875)"/>
<path d="M0 0 C-1.65809435 9.34562269 -4.64147516 17.692693 -12 24 C-10.66036133 20.39328051 -8.99969458 17.27949911 -7 14 C-5.99112983 12.00445973 -4.99005951 10.00493944 -4 8 C-29.43699284 12.70378862 -54.79532448 17.75294839 -80.125 23 C-81.20108458 23.22290522 -81.20108458 23.22290522 -82.29890823 23.45031357 C-91.20041104 25.29473776 -100.10075335 27.1447187 -109 29 C-96.88732241 41.30414255 -80.79032762 47.83101135 -63.5625 48.25 C-54.46716386 48.04269889 -46.24649725 46.50122771 -37.9609375 42.70703125 C-36.99027344 42.35705078 -36.99027344 42.35705078 -36 42 C-35.34 42.33 -34.68 42.66 -34 43 C-38.83927762 46.85166994 -41.72235008 48.43949554 -48 49 C-49.02996094 49.33 -50.05992187 49.66 -51.12109375 50 C-67.6961282 54.8735941 -86.66068073 50.05533584 -101.35546875 42.1171875 C-105.95507563 39.51417173 -110.0723518 36.53654764 -114 33 C-114.6290625 32.46246094 -115.258125 31.92492187 -115.90625 31.37109375 C-117.625 29.8125 -117.625 29.8125 -120 27 C-119.6484375 24.82421875 -119.6484375 24.82421875 -119 23 C-101.71883578 19.13213835 -84.42795075 15.43838795 -67.03027344 12.13256836 C-59.38968328 10.6747344 -51.78079418 9.12394004 -44.1875 7.4375 C-35.8112594 5.58453539 -27.41819271 3.84007553 -19 2.1875 C-17.9071167 1.96827881 -16.8142334 1.74905762 -15.68823242 1.52319336 C-10.36432529 0.49234389 -5.42393574 -0.2696559 0 0 Z " fill="#0C0C0C" transform="translate(307,163)"/>
<path d="M0 0 C0.99 0.33 1.98 0.66 3 1 C2.34 1.99 1.68 2.98 1 4 C0.83286431 6.62531524 0.83286431 6.62531524 1 9 C-1.14452344 10.08598911 -3.29055958 11.16880699 -5.4375 12.25 C-6.02982422 12.55035156 -6.62214844 12.85070312 -7.23242188 13.16015625 C-12.08645767 15.60015285 -17.02117425 17.82716193 -22 20 C-11.70151118 15.80627722 -1.65079924 11.56027699 8 6 C9.32830058 5.32336141 10.66001914 4.65320251 12 4 C0.82297446 19.27526823 -20.85991421 27.15229862 -38.86987305 30.53979492 C-58.71275377 33.45718281 -79.0772433 31.13046096 -97 22 C-97 21.01 -97 20.02 -97 19 C-96.34 19 -95.68 19 -95 19 C-96.4258086 15.54804233 -98.09746334 13.8985744 -101.125 11.75 C-102.21167969 10.96882812 -102.21167969 10.96882812 -103.3203125 10.171875 C-103.87460938 9.78515625 -104.42890625 9.3984375 -105 9 C-104.34 8.67 -103.68 8.34 -103 8 C-101.29617131 8.9797015 -99.63741847 10.03793607 -98 11.125 C-79.74338668 21.817547 -55.27534307 23.66016212 -34.76171875 18.703125 C-23.43936376 15.39106232 -11.66910469 10.08402547 -2.80859375 2.1953125 C-1.41833984 1.10863281 -1.41833984 1.10863281 0 0 Z " fill="#F0F0F0" transform="translate(297,208)"/>
<path d="M0 0 C7.11162645 6.85755419 12.14096659 14.75424835 16.64868164 23.47167969 C20.15074959 29.89474497 24.60231018 32.94626434 31.39013672 35.50634766 C47.85247271 39.52992903 63.53885572 38.22809215 80.26123047 36.89697266 C82.12903368 36.75198559 83.99687208 36.60745104 85.86474609 36.46337891 C90.39316292 36.11311944 94.92106126 35.75676208 99.44873047 35.39697266 C99.44873047 36.05697266 99.44873047 36.71697266 99.44873047 37.39697266 C94.3224166 37.97894549 89.1947525 38.54665534 84.06591797 39.10595703 C81.56697937 39.38382408 79.07046273 39.6781562 76.57373047 39.97509766 C32.54998286 45.03977659 32.54998286 45.03977659 17.04638672 33.79541016 C12.58976946 29.89450801 9.60406643 25.94777612 7.07373047 20.58447266 C-2.57073411 0.24454415 -23.3728143 -12.4774749 -43.55126953 -20.60302734 C-61.4900779 -26.79668058 -83.91652486 -27.73087415 -101.89892578 -21.38037109 C-104.65398373 -20.57292406 -105.90720518 -20.59485892 -108.55126953 -21.60302734 C-70.14399166 -34.79137177 -30.07727138 -27.89432016 0 0 Z " fill="#0C0C0C" transform="translate(320.55126953125,96.60302734375)"/>
<path d="M0 0 C14.39914474 0.46448854 25.46137556 11.10253006 35.125 20.98046875 C37.0406584 23.04379249 38.86635739 25.16559266 40.6875 27.3125 C47.28699594 34.90562792 56.2082159 36.86803598 65.8359375 38.47265625 C68 39 68 39 71 41 C71 42.32 71 43.64 71 45 C49.36521352 51.50622776 49.36521352 51.50622776 40 51 C35.12197541 41.59100396 35.12197541 41.59100396 33.5625 36.875 C31.15067594 30.1300683 26.17174788 24.81092826 21 20 C20.37609375 19.38253906 19.7521875 18.76507813 19.109375 18.12890625 C13.34288469 12.64244335 7.24401638 9.23590579 0 6 C0 4.02 0 2.04 0 0 Z M41 35 C41.45196245 36.60597325 41.91182327 38.20972508 42.375 39.8125 C42.63023437 40.70582031 42.88546875 41.59914063 43.1484375 42.51953125 C43.95266661 45.20467896 43.95266661 45.20467896 46 48 C51.96210294 48.52299149 57.23913235 47.49355828 63 46 C63 45.34 63 44.68 63 44 C62.16597656 43.76925781 61.33195312 43.53851563 60.47265625 43.30078125 C53.42704617 41.25892632 47.21278271 38.91710331 41 35 Z " fill="#0C0C0C" transform="translate(267,100)"/>
<path d="M0 0 C0 0.33 0 0.66 0 1 C-1.98 1.33 -3.96 1.66 -6 2 C-4.9275 2.20625 -3.855 2.4125 -2.75 2.625 C8.061794 5.39480588 16.18357148 11.24115106 24 19 C24.94875 19.9075 25.8975 20.815 26.875 21.75 C33.44798542 28.70963162 38.25646221 36.79315845 41 46 C40.505 46.99 40.505 46.99 40 48 C39.34 47.67 38.68 47.34 38 47 C37.67 48.32 37.34 49.64 37 51 C36.82984375 50.39414063 36.6596875 49.78828125 36.484375 49.1640625 C35.69364293 46.43014844 34.85163772 43.71552905 34 41 C33.76796875 40.19691406 33.5359375 39.39382812 33.296875 38.56640625 C29.52399203 27.3032409 20.38153748 17.54161793 10 12 C9.16339844 11.54109375 8.32679688 11.0821875 7.46484375 10.609375 C-5.30371926 3.90732383 -20.11829309 2.60746139 -34.0625 6.625 C-36.06256752 7.36226979 -38.04417762 8.15229981 -40 9 C-41.3921875 9.60134766 -41.3921875 9.60134766 -42.8125 10.21484375 C-53.31378576 15.36107044 -62.79950841 24.09410954 -69 34 C-69.52207031 34.83015625 -70.04414063 35.6603125 -70.58203125 36.515625 C-75.83904429 45.46917518 -78.01328214 54.73813426 -79 65 C-79.33 65 -79.66 65 -80 65 C-81.02127553 49.86242717 -76.73794615 37.67477521 -67 26 C-48.98353136 5.73147278 -28.08456301 -7.74746566 0 0 Z " fill="#F2F2F2" transform="translate(265,101)"/>
<path d="M0 0 C0.33 0 0.66 0 1 0 C1.5625 2.5625 1.5625 2.5625 1 6 C-11.46356369 21.30613084 -40.29094514 26.99950932 -58.3515625 31.98828125 C-61.04229607 32.73442686 -63.72099503 33.50188016 -66.3984375 34.29296875 C-76.82047908 37.35611903 -87.29954538 40.16451449 -97.8303833 42.82629395 C-99.26929986 43.19020257 -100.7077433 43.55598741 -102.14569092 43.92370605 C-104.17892639 44.44245063 -106.21406306 44.95291249 -108.25 45.4609375 C-109.43078125 45.75790527 -110.6115625 46.05487305 -111.828125 46.36083984 C-114.66631927 46.93276046 -117.1190433 47.13335255 -120 47 C-119.67 46.01 -119.34 45.02 -119 44 C-116.34008789 42.94775391 -116.34008789 42.94775391 -112.72265625 41.9765625 C-112.0616391 41.79434647 -111.40062195 41.61213043 -110.71957397 41.4243927 C-109.2704186 41.02565627 -107.81977014 40.63231759 -106.3678894 40.24362183 C-102.38550833 39.17500069 -98.41601329 38.06031377 -94.4453125 36.94921875 C-93.60304611 36.71439285 -92.76077972 36.47956696 -91.89299011 36.23762512 C-41.5090766 25.55882226 -41.5090766 25.55882226 0 0 Z " fill="#515151" transform="translate(141,171)"/>
<path d="M0 0 C0.87519287 -0.00563965 1.75038574 -0.0112793 2.65209961 -0.01708984 C8.44874327 0.04757915 13.63117687 0.88504595 19.25 2.3125 C18.26 2.6425 17.27 2.9725 16.25 3.3125 C16.25 4.9625 16.25 6.6125 16.25 8.3125 C11.3 7.3225 11.3 7.3225 6.25 6.3125 C6.25 5.9825 6.25 5.6525 6.25 5.3125 C9.22 4.8175 9.22 4.8175 12.25 4.3125 C-2.18382055 1.56320085 -17.19041843 2.88090118 -29.9921875 10.3828125 C-35.40343545 14.16915313 -40.03557037 18.71725539 -44.75 23.3125 C-45.4821875 23.95960937 -46.214375 24.60671875 -46.96875 25.2734375 C-57.44571403 34.79417069 -64.35372143 48.2808517 -65.3125 62.3125 C-65.35503906 63.42625 -65.39757812 64.54 -65.44140625 65.6875 C-65.54324219 66.55375 -65.64507812 67.42 -65.75 68.3125 C-66.74 68.8075 -66.74 68.8075 -67.75 69.3125 C-68.15729228 71.63406597 -68.49438677 73.9693787 -68.75 76.3125 C-69.08 76.3125 -69.41 76.3125 -69.75 76.3125 C-69.99991456 69.66199576 -69.48955334 63.74263467 -67.75 57.3125 C-68.41 57.3125 -69.07 57.3125 -69.75 57.3125 C-68.01857595 40.20722444 -58.28809253 27.55141518 -45.75 16.3125 C-31.94873821 5.21247202 -17.60586966 0.10781304 0 0 Z " fill="#151515" transform="translate(250.75,96.6875)"/>
<path d="M0 0 C0 0.99 0 1.98 0 3 C-5.17625036 7.72055338 -17.70509731 17 -25 17 C-25.495 18.485 -25.495 18.485 -26 20 C-49.24135058 25.52269717 -75.18971137 25.28021321 -96.0625 12.4375 C-99.24617947 10.38660749 -100.87667959 9.18498061 -103 6 C-99.37040799 7.37583813 -96.03687252 9.03048629 -92.625 10.875 C-80.56833578 16.88597884 -68.75453887 18.75947698 -55.375 18.6875 C-54.33850311 18.68544556 -54.33850311 18.68544556 -53.28106689 18.68334961 C-33.44339277 18.55784165 -15.71301273 12.20867176 0 0 Z " fill="#161616" transform="translate(295,210)"/>
<path d="M0 0 C0.66 0.33 1.32 0.66 2 1 C1.40574219 1.48726563 0.81148437 1.97453125 0.19921875 2.4765625 C-15.27222966 15.71030531 -26.82488033 33.23238948 -32.12890625 52.9765625 C-33.62355629 58.16427159 -35.83011805 63.06440785 -38 68 C-38.66 68 -39.32 68 -40 68 C-39.25916823 64.17236918 -38.45291879 60.36160445 -37.578125 56.5625 C-37.18471873 54.81875331 -36.82119654 53.06805469 -36.484375 51.3125 C-31.92526771 29.80286563 -18.14716759 11.89978203 0 0 Z " fill="#2D2D2D" transform="translate(192,99)"/>
<path d="M0 0 C2.34054554 2.34054554 2.99321065 4.21475064 4.125 7.3125 C4.47820312 8.25738281 4.83140625 9.20226562 5.1953125 10.17578125 C5.9889175 12.96110365 6.06215167 15.12865309 6 18 C5.3922876 18.13051758 4.7845752 18.26103516 4.15844727 18.39550781 C1.29276664 19.01199218 -1.57244022 19.63063655 -4.4375 20.25 C-6.01180786 20.5900708 -6.01180786 20.5900708 -7.61791992 20.93701172 C-13.70271187 22.25908666 -19.7633291 23.64975191 -25.8125 25.125 C-31.15944792 26.41466878 -36.50139081 27.46336711 -41.9375 28.3125 C-50.33381565 29.63245743 -58.6610279 31.2770989 -66.98733521 32.97616577 C-68.47153291 33.27877852 -69.95612114 33.57948347 -71.44113159 33.87808228 C-80.16568103 35.63600557 -88.64598111 37.64565339 -97.13574219 40.34790039 C-99.95355768 40.98942657 -101.3358295 41.00329982 -104 40 C-103.01 40 -102.02 40 -101 40 C-101 39.34 -101 38.68 -101 38 C-35.3450808 23.99063399 -35.3450808 23.99063399 -13.625 19.625 C-12.57039078 19.41108109 -12.57039078 19.41108109 -11.49447632 19.19284058 C-9.57271354 18.80389839 -7.64967714 18.42126435 -5.7265625 18.0390625 C-4.18863037 17.73282959 -4.18863037 17.73282959 -2.61962891 17.42041016 C0 17 0 17 4 17 C3.62746094 16.10796875 3.25492187 15.2159375 2.87109375 14.296875 C2.39800781 13.12640625 1.92492187 11.9559375 1.4375 10.75 C0.96183594 9.58984375 0.48617187 8.4296875 -0.00390625 7.234375 C-0.95770524 4.13733356 -1.20983356 2.92678299 0 0 Z " fill="#1D1D1D" transform="translate(296,134)"/>
<path d="M0 0 C16.194408 4.51319567 28.3104691 15.37545093 37.125 29.375 C39.48918293 33.69437218 41.59311069 38.27872115 43 43 C42.505 43.99 42.505 43.99 42 45 C41.01 44.505 41.01 44.505 40 44 C39.67 45.32 39.34 46.64 39 48 C38.82984375 47.39414063 38.6596875 46.78828125 38.484375 46.1640625 C37.69364293 43.43014844 36.85163772 40.71552905 36 38 C35.65195312 36.79537109 35.65195312 36.79537109 35.296875 35.56640625 C31.52423616 24.30396972 22.38166224 14.54047259 12 9 C11.14019531 8.52949219 10.28039062 8.05898437 9.39453125 7.57421875 C5.25089484 5.40141088 1.64403361 3.7657715 -3 3 C-2.01 2.01 -1.02 1.02 0 0 Z " fill="#D1D1D1" transform="translate(263,104)"/>
<path d="M0 0 C0.33 0 0.66 0 1 0 C1.5625 2.5625 1.5625 2.5625 1 6 C-3.70099699 11.7731542 -11.2569763 14.81500207 -17.8125 18 C-18.64885986 18.41032471 -19.48521973 18.82064941 -20.34692383 19.2434082 C-21.14638428 19.6168335 -21.94584473 19.99025879 -22.76953125 20.375 C-23.48729736 20.71273437 -24.20506348 21.05046875 -24.94458008 21.3984375 C-27.37778705 22.11056744 -28.61485596 21.73936977 -31 21 C-33.21159373 21.30520788 -33.21159373 21.30520788 -35.4375 21.9375 C-38.71580301 22.7435514 -41.6011581 23.21928012 -45 23 C-42.07494218 21.04996145 -39.76284038 20.15464757 -36.44140625 19.08203125 C-16.02012584 13.10945464 -16.02012584 13.10945464 0 0 Z " fill="#BABABA" transform="translate(141,171)"/>
<path d="M0 0 C0.66 0.33 1.32 0.66 2 1 C-0.82400428 5.01305871 -4.1790708 8.35881918 -7.8203125 11.640625 C-20.95454598 23.89924292 -25.09881707 38.04556926 -28 55 C-28.33 55 -28.66 55 -29 55 C-30.01558762 39.94673463 -25.79925206 27.56606211 -16 16 C-10.87286628 10.46238383 -5.46266826 5.20424509 0 0 Z " fill="#B5B5B5" transform="translate(214,111)"/>
<path d="M0 0 C1.33514648 -0.01160156 1.33514648 -0.01160156 2.69726562 -0.0234375 C8.60510468 -0.00617574 13.83915969 0.78277542 19.5625 2.25 C18.5725 2.58 17.5825 2.91 16.5625 3.25 C16.5625 4.9 16.5625 6.55 16.5625 8.25 C11.6125 7.26 11.6125 7.26 6.5625 6.25 C6.5625 5.92 6.5625 5.59 6.5625 5.25 C8.5425 4.92 10.5225 4.59 12.5625 4.25 C0.26843336 1.90827302 -11.77590647 3.04678351 -23.6171875 6.97265625 C-25.4375 7.25 -25.4375 7.25 -28.4375 5.25 C-26.93826525 4.78916965 -25.43806026 4.33149574 -23.9375 3.875 C-23.1021875 3.61976562 -22.266875 3.36453125 -21.40625 3.1015625 C-20.4265625 2.82054688 -19.446875 2.53953125 -18.4375 2.25 C-17.21933594 1.89164062 -16.00117188 1.53328125 -14.74609375 1.1640625 C-9.83764428 -0.04190774 -5.03124982 -0.0435292 0 0 Z " fill="#1B1B1B" transform="translate(250.4375,96.75)"/>
<path d="M0 0 C0 0.33 0 0.66 0 1 C-1.32837891 0.96072388 -1.32837891 0.96072388 -2.68359375 0.9206543 C-24.42254462 -0.03218283 -24.42254462 -0.03218283 -45.33203125 5.00390625 C-48 6 -48 6 -51 5 C-34.83405626 -4.04863665 -17.62981066 -5.70675952 0 0 Z " fill="#404040" transform="translate(268,84)"/>
<path d="M0 0 C0 0.33 0 0.66 0 1 C-5.82857969 1.65410914 -11.50780932 2.0322207 -17.375 1.875 C-26.95059409 1.80676536 -35.776854 3.96736865 -44.29296875 8.328125 C-44.85628906 8.54984375 -45.41960937 8.7715625 -46 9 C-46.66 8.67 -47.32 8.34 -48 8 C-46.44038638 7.03697644 -44.87716775 6.07978996 -43.3125 5.125 C-42.44238281 4.59132813 -41.57226562 4.05765625 -40.67578125 3.5078125 C-28.38821316 -3.41627696 -13.36475899 -3.68683007 0 0 Z " fill="#B0B0B0" transform="translate(265,101)"/>
<path d="M0 0 C3.62959201 1.37583813 6.96312748 3.03048629 10.375 4.875 C25.86340539 12.52567368 41.02813009 12.77630532 58 13 C58 13.33 58 13.66 58 14 C57.03175293 14.03758423 57.03175293 14.03758423 56.04394531 14.07592773 C53.11244106 14.19214433 50.18123783 14.31475442 47.25 14.4375 C46.23421875 14.47681641 45.2184375 14.51613281 44.171875 14.55664062 C43.1921875 14.59853516 42.2125 14.64042969 41.203125 14.68359375 C40.30239258 14.72025146 39.40166016 14.75690918 38.47363281 14.79467773 C36.03621762 14.92540449 36.03621762 14.92540449 33.88012695 15.55517578 C26.26265548 17.35741355 14.68947403 11.26888473 8.3203125 7.5234375 C5.29828863 5.53928041 2.62713725 3.48512983 0 1 C0 0.67 0 0.34 0 0 Z " fill="#232323" transform="translate(192,216)"/>
<path d="M0 0 C0 0.66 0 1.32 0 2 C-9.80962472 4.60168308 -19.62098838 7.18567081 -29.47583008 9.61132812 C-34.2409477 10.79002626 -38.96143221 12.09094371 -43.66796875 13.484375 C-46.17701601 14.03913922 -48.4383685 14.09099934 -51 14 C-48.40197248 11.40197248 -46.32699685 11.13571113 -42.76953125 10.23046875 C-41.49770996 9.90103271 -40.22588867 9.57159668 -38.91552734 9.23217773 C-38.24430847 9.06128632 -37.5730896 8.8903949 -36.88153076 8.71432495 C-26.64668461 6.10828718 -16.51626612 3.42996558 -6.6171875 -0.28515625 C-3.90000865 -1.02731107 -2.59949742 -0.98880404 0 0 Z " fill="#CCCCCC" transform="translate(72,204)"/>
<path d="M0 0 C0.99 0.33 1.98 0.66 3 1 C2.01 2.485 2.01 2.485 1 4 C0.83286431 6.62531524 0.83286431 6.62531524 1 9 C-20.44382022 20 -20.44382022 20 -25 20 C-25 20.66 -25 21.32 -25 22 C-25.99 21.67 -26.98 21.34 -28 21 C-25.2489879 17.69674011 -21.5725018 16.08889854 -17.8125 14.1875 C-7.10327527 9.01446409 -7.10327527 9.01446409 0 0 Z " fill="#F3F3F3" transform="translate(297,208)"/>
<path d="M0 0 C0.66 0.33 1.32 0.66 2 1 C-5.06792502 7.86702793 -13.51883906 14.83961302 -23 18 C-23.33 17.34 -23.66 16.68 -24 16 C-24.99 15.34 -25.98 14.68 -27 14 C-25.44152344 13.34644531 -25.44152344 13.34644531 -23.8515625 12.6796875 C-11.05929385 7.74528132 -11.05929385 7.74528132 0 0 Z " fill="#EFEFEF" transform="translate(307,212)"/>
<path d="M0 0 C0 0.66 0 1.32 0 2 C-0.73935791 2.0093457 -1.47871582 2.01869141 -2.24047852 2.02832031 C-21.0493087 2.18969193 -21.0493087 2.18969193 -39.27734375 6.2578125 C-42.05590608 7.01523982 -43.34723663 7.00996774 -46 6 C-36.72124609 2.81384859 -27.72706475 0.54905277 -17.9375 -0.375 C-17.07036377 -0.45927246 -16.20322754 -0.54354492 -15.30981445 -0.63037109 C-10.02615471 -1.05925777 -5.23519302 -0.83520998 0 0 Z " fill="#1D1D1D" transform="translate(258,69)"/>
<path d="M0 0 C0.33 0 0.66 0 1 0 C0.95430511 9.71016376 -2.70965194 18.41930389 -7 27 C-7.66 27 -8.32 27 -9 27 C-7.56965172 19.60986724 -5.85651528 12.29345289 -4 5 C-3.34 5 -2.68 5 -2 5 C-1.855625 4.360625 -1.71125 3.72125 -1.5625 3.0625 C-1 1 -1 1 0 0 Z " fill="#1A1A1A" transform="translate(161,140)"/>
<path d="M0 0 C10.822065 3.01598533 19.52768011 8.60957938 27 17 C26.34 17.66 25.68 18.32 25 19 C24.26910156 18.25556641 24.26910156 18.25556641 23.5234375 17.49609375 C16.29318724 10.56819941 7.09833056 4.49956413 -3 3 C-2.01 2.01 -1.02 1.02 0 0 Z " fill="#CDCDCD" transform="translate(263,104)"/>
<path d="M0 0 C0.66 0.33 1.32 0.66 2 1 C1.35933594 1.54527344 0.71867187 2.09054688 0.05859375 2.65234375 C-5.14934262 7.19279498 -9.5763966 11.66877645 -13.52734375 17.34765625 C-14.01332031 17.89292969 -14.49929687 18.43820313 -15 19 C-15.99 19 -16.98 19 -18 19 C-20.20142332 21.4390706 -20.20142332 21.4390706 -22 24 C-22.66 23.67 -23.32 23.34 -24 23 C-17.07643752 13.79373708 -9.51311403 6.47701381 0 0 Z " fill="#242424" transform="translate(192,99)"/>
<path d="M0 0 C-0.66 1.32 -1.32 2.64 -2 4 C-5.39576062 4.05830787 -8.7913915 4.09369946 -12.1875 4.125 C-13.14720703 4.14175781 -14.10691406 4.15851563 -15.09570312 4.17578125 C-16.02705078 4.18222656 -16.95839844 4.18867188 -17.91796875 4.1953125 C-18.77156982 4.20578613 -19.6251709 4.21625977 -20.50463867 4.22705078 C-23.30726815 3.97204194 -25.44729419 3.15541422 -28 2 C-28 1.67 -28 1.34 -28 1 C-24.27091231 0.83153467 -20.54171841 0.66554419 -16.8125 0.5 C-15.75740234 0.45230469 -14.70230469 0.40460938 -13.61523438 0.35546875 C-12.08286133 0.28779297 -12.08286133 0.28779297 -10.51953125 0.21875 C-9.58214111 0.17685547 -8.64475098 0.13496094 -7.67895508 0.09179688 C-5.11673177 0.00399992 -2.56347632 -0.01626313 0 0 Z " fill="#191919" transform="translate(255,229)"/>
<path d="M0 0 C1.2065625 0.0309375 1.2065625 0.0309375 2.4375 0.0625 C2.4375 0.7225 2.4375 1.3825 2.4375 2.0625 C1.32955078 2.47628906 1.32955078 2.47628906 0.19921875 2.8984375 C-2.35159829 3.97360508 -4.43871065 5.18032043 -6.75 6.6875 C-11.60500292 9.65322577 -16.63004257 12.04989464 -21.8125 14.375 C-22.96528442 14.89924561 -22.96528442 14.89924561 -24.14135742 15.43408203 C-28.28320474 17.26021725 -32.01586797 18.56294967 -36.5625 19.0625 C-33.21064227 16.21091954 -29.80572939 14.92633134 -25.6875 13.4375 C-18.11150377 10.57751924 -7.29030573 0.17781233 0 0 Z " fill="#626262" transform="translate(308.5625,209.9375)"/>
<path d="M0 0 C0.66 0.66 1.32 1.32 2 2 C-2.1646592 3.46410988 -6.33206666 4.92023954 -10.5 6.375 C-12.25957031 6.99375 -12.25957031 6.99375 -14.0546875 7.625 C-26.94101225 12.11349514 -26.94101225 12.11349514 -32 13 C-32.99 12.34 -33.98 11.68 -35 11 C-34.43716309 10.84442627 -33.87432617 10.68885254 -33.29443359 10.52856445 C-22.03803435 7.4030613 -10.92574337 4.14994622 0 0 Z " fill="#363636" transform="translate(114,192)"/>
<path d="M0 0 C0 0.66 0 1.32 0 2 C-5.61 2.99 -11.22 3.98 -17 5 C-17 4.34 -17 3.68 -17 3 C-27.395 3.495 -27.395 3.495 -38 4 C-38 3.67 -38 3.34 -38 3 C-33.55291355 2.56911927 -29.10548654 2.14199629 -24.65771484 1.71826172 C-23.14654947 1.57377168 -21.63547968 1.42827824 -20.12451172 1.28173828 C-17.94523441 1.07056243 -15.76563214 0.86306841 -13.5859375 0.65625 C-12.2767334 0.53056641 -10.9675293 0.40488281 -9.61865234 0.27539062 C-6.39269223 0.02988509 -3.23315392 -0.05250047 0 0 Z " fill="#BFBFBF" transform="translate(420,134)"/>
<path d="M0 0 C0 1.33333333 0 2.66666667 0 4 C-3.43510236 4.69986698 -6.87336524 5.38274929 -10.3125 6.0625 C-11.77719727 6.36124023 -11.77719727 6.36124023 -13.27148438 6.66601562 C-14.20927734 6.84970703 -15.14707031 7.03339844 -16.11328125 7.22265625 C-17.40939331 7.48187866 -17.40939331 7.48187866 -18.73168945 7.74633789 C-21 8 -21 8 -24 7 C-18.55543753 4.73544747 -13.07211693 2.61889802 -7.5 0.6875 C-6.4996875 0.34074219 -5.499375 -0.00601563 -4.46875 -0.36328125 C-2 -1 -2 -1 0 0 Z " fill="#D5D5D5" transform="translate(104,199)"/>
<path d="M0 0 C0 0.99 0 1.98 0 3 C-6.45487265 8.78278179 -16.75004287 16.35923729 -25.6875 16.375 C-26.780625 16.25125 -27.87375 16.1275 -29 16 C-26.15584037 14.10389358 -23.6727987 13.03569739 -20.5 11.8125 C-14.16286782 9.22528686 -8.64307538 5.84271171 -3 2 C-2.01 1.34 -1.02 0.68 0 0 Z " fill="#454545" transform="translate(295,210)"/>
<path d="M0 0 C0.66 0.33 1.32 0.66 2 1 C-2.83927762 4.85166994 -5.72235008 6.43949554 -12 7 C-13.51787109 7.50080078 -13.51787109 7.50080078 -15.06640625 8.01171875 C-19.81775153 9.41772909 -24.52326273 9.21698716 -29.4375 9.125 C-30.35982422 9.11597656 -31.28214844 9.10695312 -32.23242188 9.09765625 C-34.48855809 9.0742766 -36.74413684 9.04150916 -39 9 C-39 8.67 -39 8.34 -39 8 C-37.17662109 7.90912109 -37.17662109 7.90912109 -35.31640625 7.81640625 C-33.73175772 7.73201668 -32.14712298 7.6473679 -30.5625 7.5625 C-29.76005859 7.52318359 -28.95761719 7.48386719 -28.13085938 7.44335938 C-24.24760439 7.5945704 -24.24760439 7.5945704 -21 6 C-18.79845178 5.51011125 -16.58837057 5.05835466 -14.375 4.625 C-10.31661167 3.79017878 -6.51570027 2.99664396 -2.75 1.25 C-1.8425 0.8375 -0.935 0.425 0 0 Z " fill="#2E2F2F" transform="translate(271,205)"/>
<path d="M0 0 C0.86061035 0.15847412 1.7212207 0.31694824 2.60791016 0.48022461 C5.86124907 0.97873897 8.98624806 1.20249374 12.2734375 1.31640625 C13.42714844 1.35830078 14.58085937 1.40019531 15.76953125 1.44335938 C16.95933594 1.48267578 18.14914063 1.52199219 19.375 1.5625 C21.19451172 1.62727539 21.19451172 1.62727539 23.05078125 1.69335938 C26.03375032 1.79905513 29.01679742 1.90115321 32 2 C32 2.33 32 2.66 32 3 C31.03175293 3.03758423 31.03175293 3.03758423 30.04394531 3.07592773 C27.11244106 3.19214433 24.18123783 3.31475442 21.25 3.4375 C20.23421875 3.47681641 19.2184375 3.51613281 18.171875 3.55664062 C17.1921875 3.59853516 16.2125 3.64042969 15.203125 3.68359375 C14.30239258 3.72025146 13.40166016 3.75690918 12.47363281 3.79467773 C10.20145823 3.98327809 8.20114186 4.44139489 6 5 C3.24667526 4.56288458 0.69068047 3.76235947 -2 3 C-1.34 2.67 -0.68 2.34 0 2 C0 1.34 0 0.68 0 0 Z " fill="#505050" transform="translate(218,227)"/>
<path d="M0 0 C0.66 0.99 1.32 1.98 2 3 C1 5 1 5 -0.75 6.9375 C-4.95576853 12.66201828 -7.40212408 19.42189218 -10 26 C-11.507237 21.40669683 -9.74834022 18.31996191 -7.8125 14.125 C-7.50763672 13.43019531 -7.20277344 12.73539063 -6.88867188 12.01953125 C-4.94943901 7.70199393 -2.73168501 3.8643349 0 0 Z " fill="#5C5C5C" transform="translate(158,120)"/>
<path d="M0 0 C0.66 0.33 1.32 0.66 2 1 C-0.36662602 4.36310013 -3.06180987 7.12710298 -6 10 C-7.43883659 11.43616217 -8.87626931 12.8737318 -10.3125 14.3125 C-11.54166667 15.54166667 -12.77083333 16.77083333 -14 18 C-14.33 17.01 -14.66 16.02 -15 15 C-10.05 10.05 -5.1 5.1 0 0 Z " fill="#C2C2C2" transform="translate(214,111)"/>
<path d="M0 0 C0 4.29 0 8.58 0 13 C-0.99 13.495 -0.99 13.495 -2 14 C-2.40729228 16.32156597 -2.74438677 18.6568787 -3 21 C-3.33 21 -3.66 21 -4 21 C-4.24991456 14.34949576 -3.73955334 8.43013467 -2 2 C-2.66 1.67 -3.32 1.34 -4 1 C-1 0 -1 0 0 0 Z " fill="#353535" transform="translate(185,152)"/>
<path d="M0 0 C-0.99 0.33 -1.98 0.66 -3 1 C-3 2.65 -3 4.3 -3 6 C-6.3 5.34 -9.6 4.68 -13 4 C-13 3.67 -13 3.34 -13 3 C-11.02 2.67 -9.04 2.34 -7 2 C-9.31 1.67 -11.62 1.34 -14 1 C-14 0.67 -14 0.34 -14 0 C-9.20699867 -1.39151652 -4.84864218 -0.68662689 0 0 Z " fill="#2F2F2F" transform="translate(270,99)"/>
<path d="M0 0 C-2.6687814 2.6687814 -5.31740129 3.32362727 -8.875 4.5625 C-10.10992187 4.99691406 -11.34484375 5.43132812 -12.6171875 5.87890625 C-15.0788488 6.69472241 -17.47364567 7.43506147 -20 8 C-17.12114441 4.83664574 -14.44458588 2.96970586 -10.5625 1.1875 C-9.63566406 0.74792969 -8.70882812 0.30835937 -7.75390625 -0.14453125 C-4.69418128 -1.09499901 -3.03575652 -0.89805501 0 0 Z " fill="#7B7B7B" transform="translate(237,102)"/>
<path d="M0 0 C-3.61920645 2.4128043 -7.20123537 3.17321246 -11.375 4.125 C-12.13039063 4.30675781 -12.88578125 4.48851562 -13.6640625 4.67578125 C-17.51262597 5.57063954 -21.01948977 6.2378791 -25 6 C-21.95949679 2.95949679 -18.26477135 2.43848131 -14.1875 1.3125 C-13.37990234 1.07466797 -12.57230469 0.83683594 -11.74023438 0.59179688 C-7.50956444 -0.58974158 -4.31326415 -1.44358739 0 0 Z " fill="#9B9B9B" transform="translate(46,212)"/>
<path d="M0 0 C0.66 0.33 1.32 0.66 2 1 C0.60886005 2.27596932 -0.78814413 3.54554648 -2.1875 4.8125 C-2.96480469 5.52019531 -3.74210937 6.22789062 -4.54296875 6.95703125 C-6.91984915 8.93335629 -9.31078866 10.48582594 -12 12 C-12 11.34 -12 10.68 -12 10 C-12.99 9.67 -13.98 9.34 -15 9 C-14.08476562 8.51789063 -13.16953125 8.03578125 -12.2265625 7.5390625 C-11.0259405 6.90123206 -9.8254252 6.26320074 -8.625 5.625 C-8.02171875 5.30789062 -7.4184375 4.99078125 -6.796875 4.6640625 C-4.21449618 3.2867938 -2.08169419 2.08169419 0 0 Z " fill="#D2D2D2" transform="translate(307,212)"/>
<path d="M0 0 C3 1 3 1 4.203125 2.77734375 C4.54859375 3.49019531 4.8940625 4.20304688 5.25 4.9375 C5.78367187 6.00291016 5.78367187 6.00291016 6.328125 7.08984375 C6.54984375 7.72019531 6.7715625 8.35054687 7 9 C6.67 9.66 6.34 10.32 6 11 C5.34 10.67 4.68 10.34 4 10 C3.67 11.32 3.34 12.64 3 14 C2.49307308 12.4188708 1.99473557 10.83498617 1.5 9.25 C1.2215625 8.36828125 0.943125 7.4865625 0.65625 6.578125 C0 4 0 4 0 0 Z " fill="#D9D9D9" transform="translate(299,138)"/>
<path d="M0 0 C0.66 0.33 1.32 0.66 2 1 C1.38511719 1.72445312 0.77023438 2.44890625 0.13671875 3.1953125 C-0.67152344 4.16210938 -1.47976562 5.12890625 -2.3125 6.125 C-3.11300781 7.07632813 -3.91351563 8.02765625 -4.73828125 9.0078125 C-6.92365519 11.89899805 -8.40040961 14.76361944 -10 18 C-12.1875 19.375 -12.1875 19.375 -14 20 C-12.6251276 16.03129615 -10.79752511 13.22720013 -8.125 10 C-7.44695312 9.175 -6.76890625 8.35 -6.0703125 7.5 C-5.04550781 6.2625 -5.04550781 6.2625 -4 5 C-2.66384945 3.33559101 -1.32969433 1.66957136 0 0 Z " fill="#6C6C6C" transform="translate(173,100)"/>
<path d="M0 0 C-2.52379822 2.52379822 -4.3522951 2.71494735 -7.8125 3.5 C-10.89512214 4.20459935 -13.77378121 4.9093821 -16.7109375 6.0859375 C-19.28913543 7.11545681 -21.24923511 7.15718657 -24 7 C-20.19612847 4.46408565 -16.31371331 3.25379572 -12 1.8125 C-11.18015625 1.52697266 -10.3603125 1.24144531 -9.515625 0.94726562 C-8.72671875 0.68236328 -7.9378125 0.41746094 -7.125 0.14453125 C-6.40570313 -0.09934326 -5.68640625 -0.34321777 -4.9453125 -0.59448242 C-3 -1 -3 -1 0 0 Z " fill="#272727" transform="translate(120,187)"/>
<path d="M0 0 C0.66 0.33 1.32 0.66 2 1 C1 4 1 4 -1.21484375 5.16796875 C-2.11332031 5.50441406 -3.01179688 5.84085938 -3.9375 6.1875 C-4.83339844 6.53167969 -5.72929687 6.87585938 -6.65234375 7.23046875 C-9 8 -9 8 -11 8 C-11 8.66 -11 9.32 -11 10 C-11.99 9.67 -12.98 9.34 -14 9 C-11.50175511 6.18841591 -8.721524 4.55162169 -5.4375 2.75 C-4.46683594 2.20859375 -3.49617188 1.6671875 -2.49609375 1.109375 C-1.67238281 0.74328125 -0.84867187 0.3771875 0 0 Z " fill="#D9D9D9" transform="translate(283,220)"/>
<path d="M0 0 C2.34054554 2.34054554 2.99321065 4.21475064 4.125 7.3125 C4.47820312 8.25738281 4.83140625 9.20226562 5.1953125 10.17578125 C5.98399678 12.94383335 6.15620348 15.14147629 6 18 C5.67 16.68 5.34 15.36 5 14 C4.34 14 3.68 14 3 14 C2.29866401 12.42274653 1.614417 10.83788667 0.9375 9.25 C0.55464844 8.36828125 0.17179687 7.4865625 -0.22265625 6.578125 C-1.04600008 3.84743691 -0.9773992 2.63098653 0 0 Z " fill="#292929" transform="translate(296,134)"/>
<path d="M0 0 C0.33 0.99 0.66 1.98 1 3 C-0.21484375 5.26171875 -0.21484375 5.26171875 -1.9375 7.6875 C-2.78634766 8.89986328 -2.78634766 8.89986328 -3.65234375 10.13671875 C-4.09707031 10.75160156 -4.54179687 11.36648437 -5 12 C-5.99 11.67 -6.98 11.34 -8 11 C-7.67 9.68 -7.34 8.36 -7 7 C-6.34 7 -5.68 7 -5 7 C-4.731875 6.401875 -4.46375 5.80375 -4.1875 5.1875 C-3.01506533 3.02775192 -1.80630718 1.64209744 0 0 Z " fill="#0E0E0E" transform="translate(175,116)"/>
<path d="M0 0 C0 0.66 0 1.32 0 2 C-0.66 2.226875 -1.32 2.45375 -2 2.6875 C-5.33075412 4.14470493 -8.20491564 5.97495375 -11.23046875 7.9765625 C-13 9 -13 9 -15 9 C-15 8.34 -15 7.68 -15 7 C-12.98828125 5.2734375 -12.98828125 5.2734375 -10.3125 3.375 C-9.44238281 2.74335938 -8.57226562 2.11171875 -7.67578125 1.4609375 C-4.80216352 -0.10801583 -3.21561359 -0.31287051 0 0 Z " fill="#3B3B3B" transform="translate(311,210)"/>
<path d="M0 0 C5.32697239 1.45281065 8.36402802 5.08111378 12 9 C11.34 9.66 10.68 10.32 10 11 C8.32742645 9.5484451 6.66208242 8.08855591 5 6.625 C3.6078125 5.40683594 3.6078125 5.40683594 2.1875 4.1640625 C1.465625 3.44992188 0.74375 2.73578125 0 2 C0 1.34 0 0.68 0 0 Z " fill="#DFDFDF" transform="translate(278,112)"/>
<path d="M0 0 C-2.79655447 1.45879493 -5.58256419 2.65385052 -8.5625 3.6875 C-9.32691406 3.95949219 -10.09132812 4.23148437 -10.87890625 4.51171875 C-13 5 -13 5 -16 4 C-5.62642369 -1.92482916 -5.62642369 -1.92482916 0 0 Z " fill="#474747" transform="translate(233,85)"/>
<path d="M0 0 C0.66 0.33 1.32 0.66 2 1 C-0.64 4.3 -3.28 7.6 -6 11 C-6.33 10.34 -6.66 9.68 -7 9 C-7.99 8.67 -8.98 8.34 -10 8 C-9.36191406 7.50628906 -8.72382813 7.01257813 -8.06640625 6.50390625 C-7.24011719 5.86324219 -6.41382813 5.22257813 -5.5625 4.5625 C-4.73878906 3.92441406 -3.91507812 3.28632813 -3.06640625 2.62890625 C-1.12498733 1.16417803 -1.12498733 1.16417803 0 0 Z " fill="#7C7C7C" transform="translate(287,194)"/>
<path d="M0 0 C0 0.33 0 0.66 0 1 C-0.60328125 1.13277344 -1.2065625 1.26554687 -1.828125 1.40234375 C-2.62734375 1.57894531 -3.4265625 1.75554687 -4.25 1.9375 C-5.03890625 2.11152344 -5.8278125 2.28554687 -6.640625 2.46484375 C-8.97764188 2.95624621 -8.97764188 2.95624621 -11.109375 3.69140625 C-13 4 -13 4 -16 2 C-5.62642369 -1.62870159 -5.62642369 -1.62870159 0 0 Z " fill="#282828" transform="translate(238,100)"/>
<path d="M0 0 C0.99 0.33 1.98 0.66 3 1 C2.5020163 4.73487777 2.12508244 6.81237635 0 10 C-0.33 9.01 -0.66 8.02 -1 7 C-1.66 7 -2.32 7 -3 7 C-1.125 1.125 -1.125 1.125 0 0 Z " fill="#303030" transform="translate(166,125)"/>
<path d="M0 0 C0.66 0.33 1.32 0.66 2 1 C0.38050958 2.50594681 -1.24575974 4.00460668 -2.875 5.5 C-4.23238281 6.75296875 -4.23238281 6.75296875 -5.6171875 8.03125 C-8 10 -8 10 -10 10 C-10 9.01 -10 8.02 -10 7 C-7.8125 5.17578125 -7.8125 5.17578125 -5 3.3125 C-3.6078125 2.37857422 -3.6078125 2.37857422 -2.1875 1.42578125 C-1.1046875 0.72001953 -1.1046875 0.72001953 0 0 Z " fill="#474747" transform="translate(192,99)"/>
<path d="M0 0 C-2.4453385 2.96527758 -4.44602347 3.55582214 -8.1875 4.1875 C-9.08855469 4.34605469 -9.98960938 4.50460938 -10.91796875 4.66796875 C-11.94857422 4.83232422 -11.94857422 4.83232422 -13 5 C-9.47401789 1.17301942 -5.19637065 -1.73212355 0 0 Z " fill="#202020" transform="translate(128,188)"/>
<path d="M0 0 C0.82638376 2.89234315 1 4.88742431 1 8 C1.66 8.66 2.32 9.32 3 10 C1.02 11.32 -0.96 12.64 -3 14 C-3.48990279 8.93767116 -1.7106322 4.67369154 0 0 Z " fill="#D8D8D8" transform="translate(145,162)"/>
<path d="M0 0 C0.66 0.66 1.32 1.32 2 2 C1.81864449 4.76713403 1.5356614 7.3919776 1.125 10.125 C1.02058594 10.87910156 0.91617188 11.63320312 0.80859375 12.41015625 C0.54895402 14.27484156 0.27574971 16.13762887 0 18 C-0.33 18 -0.66 18 -1 18 C-1.02707139 15.75006641 -1.04642829 13.50003905 -1.0625 11.25 C-1.07410156 9.99703125 -1.08570313 8.7440625 -1.09765625 7.453125 C-1.02021027 4.71463499 -0.82780815 2.58119707 0 0 Z " fill="#9C9C9C" transform="translate(186,148)"/>
<path d="M0 0 C0.66 0.66 1.32 1.32 2 2 C-1.85756507 4.15305957 -4.55129785 5.39253254 -9 5 C-8.34 4.67 -7.68 4.34 -7 4 C-6.67 3.01 -6.34 2.02 -6 1 C-3.125 0.375 -3.125 0.375 0 0 Z " fill="#EAEAEA" transform="translate(110,191)"/>
<path d="M0 0 C2.96404505 2.80804268 5.44499019 5.18315774 7 9 C1.00274725 6.89285714 1.00274725 6.89285714 -1 4 C-0.6875 1.8125 -0.6875 1.8125 0 0 Z " fill="#C3C3C3" transform="translate(290,121)"/>
<path d="M0 0 C0 0.66 0 1.32 0 2 C-1.60203467 2.36368892 -3.20674203 2.71561952 -4.8125 3.0625 C-5.70582031 3.25972656 -6.59914063 3.45695313 -7.51953125 3.66015625 C-10 4 -10 4 -13 3 C-11.5903653 2.29819469 -10.17192359 1.61406042 -8.75 0.9375 C-7.96109375 0.55464844 -7.1721875 0.17179688 -6.359375 -0.22265625 C-3.74006478 -1.08564091 -2.55144824 -0.93045933 0 0 Z " fill="#767676" transform="translate(133,182)"/>
<path d="M0 0 C0.33 0 0.66 0 1 0 C2.10643764 5.83394389 2.27137992 8.76579213 -1 14 C-1.66 14 -2.32 14 -3 14 C-2.09276387 9.31261335 -1.0452733 4.65806256 0 0 Z " fill="#666666" transform="translate(155,153)"/>
<path d="M0 0 C4.30764815 1.56641751 8.06171464 3.68336156 12 6 C11.67 6.66 11.34 7.32 11 8 C6.40378078 6.5129879 3.53027653 4.20187872 0 1 C0 0.67 0 0.34 0 0 Z " fill="#424242" transform="translate(192,216)"/>
<path d="M0 0 C-2.36595933 2.61500768 -4.86049226 4.38999603 -8 6 C-8.66 5.67 -9.32 5.34 -10 5 C-5.03424658 -1.67808219 -5.03424658 -1.67808219 0 0 Z " fill="#DDDDDD" transform="translate(222,110)"/>
<path d="M0 0 C0.66 1.32 1.32 2.64 2 4 C-0.5654594 6.5654594 -2.47686668 6.54046087 -6 7 C-4.60667426 3.63279613 -3.0210714 2.0140476 0 0 Z " fill="#E8E8E8" transform="translate(289,216)"/>
<path d="M0 0 C0.66 1.32 1.32 2.64 2 4 C0.25 5.5625 0.25 5.5625 -2 7 C-3.32 6.67 -4.64 6.34 -6 6 C-4.02 4.02 -2.04 2.04 0 0 Z " fill="#2D2D2D" transform="translate(181,107)"/>
<path d="M0 0 C-0.33 0.66 -0.66 1.32 -1 2 C-3.28515625 2.4140625 -3.28515625 2.4140625 -6.0625 2.625 C-6.98160156 2.69976562 -7.90070313 2.77453125 -8.84765625 2.8515625 C-9.55792969 2.90054688 -10.26820312 2.94953125 -11 3 C-10.01 2.67 -9.02 2.34 -8 2 C-8 1.34 -8 0.68 -8 0 C-4.94736336 -0.98120464 -3.05263664 -0.98120464 0 0 Z " fill="#EAEAEA" transform="translate(80,202)"/>
<path d="M0 0 C0 0.99 0 1.98 0 3 C-3.37097383 4.49821059 -5.20442119 5 -9 5 C-9 4.34 -9 3.68 -9 3 C-2.25 0 -2.25 0 0 0 Z " fill="#EAEAEA" transform="translate(230,105)"/>
<path d="M0 0 C0.33 1.32 0.66 2.64 1 4 C-0.98 4.99 -0.98 4.99 -3 6 C-3.33 5.34 -3.66 4.68 -4 4 C-4.99 3.34 -5.98 2.68 -7 2 C-2.25 0 -2.25 0 0 0 Z " fill="#E8E8E8" transform="translate(287,224)"/>
<path d="M0 0 C0 0.66 0 1.32 0 2 C-3.75 3.125 -3.75 3.125 -6 2 C-7.32860925 1.64830932 -8.66158328 1.31229724 -10 1 C-3.71428571 -1.42857143 -3.71428571 -1.42857143 0 0 Z " fill="#C2C2C2" transform="translate(116,190)"/>
<path d="M0 0 C-0.33 2.31 -0.66 4.62 -1 7 C-2.32 6.34 -3.64 5.68 -5 5 C-4.6875 3.0625 -4.6875 3.0625 -4 1 C-1 0 -1 0 0 0 Z " fill="#1D1D1D" transform="translate(166,131)"/>
<path d="M0 0 C1 4 1 4 -0.9375 7.25 C-1.618125 8.1575 -2.29875 9.065 -3 10 C-3.66 9.01 -4.32 8.02 -5 7 C-3.35 4.69 -1.7 2.38 0 0 Z " fill="#ACACAC" transform="translate(198,127)"/>
<path d="M0 0 C0.66 0.33 1.32 0.66 2 1 C0.16536528 3.53354319 -1.63248912 5.94129488 -4 8 C-4.66 8 -5.32 8 -6 8 C-4.55746343 4.63408134 -2.66735273 2.48952921 0 0 Z " fill="#B8B8B8" transform="translate(214,111)"/>
<path d="M0 0 C1.98 0.66 3.96 1.32 6 2 C6 2.66 6 3.32 6 4 C3.03 3.67 0.06 3.34 -3 3 C-2.01 2.01 -1.02 1.02 0 0 Z " fill="#D7D7D7" transform="translate(263,104)"/>
<path d="M0 0 C0.99 0.99 1.98 1.98 3 3 C2.01 3.33 1.02 3.66 0 4 C-0.33 4.66 -0.66 5.32 -1 6 C-1.99 5.67 -2.98 5.34 -4 5 C-2.68 3.35 -1.36 1.7 0 0 Z " fill="#E7E7E7" transform="translate(300,181)"/>
<path d="M0 0 C-2.3773161 2.3773161 -3.70285207 2.67028521 -7 3 C-7.66 2.34 -8.32 1.68 -9 1 C-5.64919071 -1.10976881 -3.77897651 -1.0497157 0 0 Z " fill="#939393" transform="translate(237,102)"/>
<path d="M0 0 C-3.4352048 2.29013653 -4.985331 2.17842973 -9 2 C-6.98558063 -2.02883874 -3.72407517 -0.90585612 0 0 Z " fill="#B1B1B1" transform="translate(46,212)"/>
<path d="M0 0 C0.66 0.33 1.32 0.66 2 1 C-0.31 2.65 -2.62 4.3 -5 6 C-5.66 5.67 -6.32 5.34 -7 5 C-7 4.34 -7 3.68 -7 3 C-4.69631264 1.93347808 -2.35981813 0.93578995 0 0 Z " fill="#565656" transform="translate(271,205)"/>
<path d="M0 0 C0 0.66 0 1.32 0 2 C-4.43076923 4.09230769 -4.43076923 4.09230769 -7.3125 3.625 C-7.869375 3.41875 -8.42625 3.2125 -9 3 C-3.375 0 -3.375 0 0 0 Z " fill="#F5F5F5" transform="translate(91,198)"/>
<path d="M0 0 C0 1.32 0 2.64 0 4 C-1.65 4.33 -3.3 4.66 -5 5 C-5 4.34 -5 3.68 -5 3 C-5.66 2.34 -6.32 1.68 -7 1 C-2.25 0 -2.25 0 0 0 Z " fill="#CECECE" transform="translate(103,193)"/>
<path d="M0 0 C0.66 0.99 1.32 1.98 2 3 C0.768606 5.46278801 -0.78064923 6.42497687 -3 8 C-2.45276317 4.62537285 -1.9451 2.91765 0 0 Z " fill="#8E8E8E" transform="translate(158,120)"/>
</svg>
